<?xml version="1.0" standalone="no"?>
<!DOCTYPE svg PUBLIC "-//W3C//DTD SVG 20010904//EN"
 "http://www.w3.org/TR/2001/REC-SVG-20010904/DTD/svg10.dtd">
<svg version="1.0" xmlns="http://www.w3.org/2000/svg"
 width="500.000000pt" height="500.000000pt" viewBox="0 0 500.000000 500.000000"
 preserveAspectRatio="xMidYMid meet">

<g transform="translate(0.000000,500.000000) scale(0.100000,-0.100000)"
fill="#5D5DFF" stroke="none">
<path d="M1451 4439 c-126 -28 -174 -45 -306 -110 -235 -115 -423 -304 -543
-544 -39 -79 -84 -206 -97 -278 l-7 -37 2011 2 2011 3 0 21 c0 39 -59 208
-103 295 -60 119 -146 235 -246 332 -176 169 -372 270 -625 321 -68 14 -200
16 -1045 15 -905 -1 -971 -2 -1050 -20z"/>
<path d="M480 3070 l0 -70 2035 0 2035 0 0 70 0 70 -2035 0 -2035 0 0 -70z"/>
<path d="M480 2190 l0 -470 1383 0 c1467 -1 1427 0 1479 -47 28 -25 58 -87 58
-120 0 -43 -41 -115 -79 -140 l-34 -23 -1395 0 -1394 0 7 -37 c13 -73 58 -199
97 -278 164 -327 445 -553 808 -648 l85 -22 1015 0 1015 0 90 23 c358 93 652
329 805 647 50 105 100 249 100 291 l0 24 -190 0 c-207 0 -229 5 -269 56 -72
92 -27 232 84 263 22 6 121 11 223 11 l182 0 0 470 0 470 -2035 0 -2035 0 0
-470z m3272 -480 c78 -22 138 -109 124 -182 -16 -85 -79 -138 -164 -138 -85 0
-140 42 -163 125 -21 74 29 163 106 190 49 17 51 17 97 5z"/>
</g>
</svg>
